<svg xmlns="http://www.w3.org/2000/svg" width="510" height="961" viewBox="0 0 510 961">
  <defs>
    <style>
      .cls-1 {
        fill: #e7d405;
      }

      .cls-1, .cls-10, .cls-11, .cls-12, .cls-2, .cls-3, .cls-4, .cls-5, .cls-6, .cls-7, .cls-8, .cls-9 {
        fill-rule: evenodd;
      }

      .cls-2 {
        fill: #9f9206;
      }

      .cls-3 {
        fill: #fff;
      }

      .cls-4 {
        fill: #c5c5c5;
      }

      .cls-5 {
        fill: #3e3e3e;
      }

      .cls-6 {
        fill: #062646;
      }

      .cls-7 {
        fill: #616161;
      }

      .cls-8 {
        fill: #051e36;
      }

      .cls-10 {
        fill: #3c3c3c;
      }

      .cls-11 {
        fill: #072e55;
      }

      .cls-12 {
        fill: #0a3a6a;
      }
    </style>
  </defs>
  <path id="Preenchimento_de_Cor_1" data-name="Preenchimento de Cor 1" class="cls-1" d="M-1.595,310.169S-33.407,2.62,251.151,2.479,509.39,282.7,509.39,282.7L251.151,958.516Z"/>
  <path id="Preenchimento_de_Cor_3" data-name="Preenchimento de Cor 3" class="cls-2" d="M251.151,947.527L509.39,282.7s3.03-163.381-82.416-219.778S300.6,7.973,300.6,7.973L361.04,35.445s58.524,32.387,76.922,54.945,63.579,117.692,54.945,175.823S410.49,502.475,410.49,502.475Z"/>
  <path id="Preenchimento_de_Cor_2" data-name="Preenchimento de Cor 2" class="cls-3" d="M223.077,50.139c284.5-6.773,299.841,338.959,65.934,395.6C154.956,478.2,20.677,322.547,63.738,193,82.09,137.781,124.005,90.973,173.627,66.622Zm28.074,897.388"/>
  <path id="Preenchimento_de_Cor_4" data-name="Preenchimento de Cor 4" class="cls-4" d="M247.164,50.054S421.958,72.012,419.417,250.089s-166.7,200.035-166.7,200.035,203.632-.873,200.035-200.035S247.164,50.054,247.164,50.054Z"/>
  <path id="Preenchimento_de_Cor_9" data-name="Preenchimento de Cor 9" class="cls-5" d="M311.492,299.793v8.678l11.933,4.34v-8.679Z"/>
  <path id="Preenchimento_de_Cor_7" data-name="Preenchimento de Cor 7" class="cls-6" d="M92.356,240.127l1.085,9.763,5.424-4.339-1.085-8.679Z"/>
  <path id="Preenchimento_de_Cor_8" data-name="Preenchimento de Cor 8" class="cls-7" d="M95.61,246.636l215.882,62.92,1.085-8.679L96.7,239.042Z"/>
  <path id="Preenchimento_de_Cor_6" data-name="Preenchimento de Cor 6" class="cls-8" d="M78.253,235.788l6.509-3.255,13.018,5.424-5.424,4.34Z"/>
  <path id="Preenchimento_de_Cor_4-2" data-name="Preenchimento de Cor 4" class="cls-9" d="M291.965,215.176l4.339-6.509,72.684,20.612s2.721-.316,5.424,8.678,18.442,66.175,18.442,66.175l1.085,18.442-5.424,3.254L362.479,242.3l-67.26-23.867Z"/>
  <path id="Preenchimento_de_Cor_3-2" data-name="Preenchimento de Cor 3" class="cls-9" d="M326.679,236.872c-0.544,2.595.782,16.414,1.085,21.7s1.615,17.343,3.255,22.781,3.888,14.545,6.509,18.443,0.491,5.016,6.509,6.509,6.971,1.88,13.018,2.169,8.174-2.67,7.593-10.848-6.509-41.224-6.509-41.224l17.358,33.63-1.085,31.46-35.8-5.424-9.764-8.679L322.34,281.35l-3.254-18.442-2.17-21.7,2.17-8.679,3.254-3.254S327.224,234.278,326.679,236.872Z"/>
  <path id="Preenchimento_de_Cor_2-2" data-name="Preenchimento de Cor 2" class="cls-10" d="M291.965,213.006l-7.594,18.442s20.224,8.592,23.866,16.273,13.932,37.8,14.1,50.987,1.085,15.187,1.085,15.187,10.931,6.558,29.29,8.679,35.8,3.254,35.8,3.254-15.071-86.959-23.867-90.04S291.965,213.006,291.965,213.006Zm32.545,23.866c-3.207,3.319-5.235.714-3.255,23.867s6.916,40.451,9.764,44.478,10.614,10.668,15.187,10.848,12.5,1.752,17.358,0,5.516-3.041,4.339-11.933-4.834-20.954-6.509-30.375-3.138-14.9-4.339-20.612,1.723-8.5-8.679-10.848S327.717,233.554,324.51,236.872Z"/>
  <path id="Preenchimento_de_Cor_1-2" data-name="Preenchimento de Cor 1" class="cls-11" d="M82.593,233.618l13.018,4.339,3.255-37.969s-0.195-20.228,52.072-6.509,137.773,33.63,137.773,33.63l5.424-14.1L132.5,175.037s-43.417-6.851-47.733,22.781C82.782,229.528,82.593,233.618,82.593,233.618Z"/>
  <path id="Preenchimento_de_Cor_5" data-name="Preenchimento de Cor 5" class="cls-12" d="M79.338,235.788v8.678l14.1,5.424v-8.678Z"/>
</svg>
